<!-- Generated by IcoMoon.io -->
<svg version="1.1" xmlns="http://www.w3.org/2000/svg" width="74" height="56" viewBox="0 0 74 56">
<title>Invonavit</title>
<path fill="#dc052b" d="M4.2 46.3h1.9v7.8h-1.9v-7.8z"></path>
<path fill="#dc052b" d="M58.4 46.3h1.9v7.8h-1.9v-7.8z"></path>
<path fill="#dc052b" d="M41.2 46.3h-1.9v4.7l-4.1-4.7h-1.8v7.8h1.8v-5.1l4.5 5.1h1.5z"></path>
<path fill="#dc052b" d="M68.9 46.3h-7.4v1.4h2.8v6.4h1.8v-6.4h2.8z"></path>
<path fill="#dc052b" d="M22.4 47.7v-1.4h-5.3v7.8h1.9v-3.2h3.4v-1.4h-3.4v-1.8z"></path>
<path fill="#dc052b" d="M42 54.1l4-7.7h0.7l4 7.7h-2l-2.4-4.4-2.2 4.3z"></path>
<path fill="#dc052b" d="M57.3 46.4l-4 7.7h-0.8l-4-7.7h2.1l2.4 4.4 2.2-4.4z"></path>
<path fill="#dc052b" d="M15.5 46.3h-1.8v4.7l-4.2-4.7h-1.8v7.8h1.9v-5.1l4.5 5.1h1.4z"></path>
<path fill="#dc052b" d="M27.9 46.2c-2.5 0-4.5 1.8-4.5 4s2 4 4.5 4 4.5-1.8 4.5-4c0-2.2-2-4-4.5-4zM27.9 52.5c-1.4 0-2.6-1-2.6-2.3s1.1-2.3 2.6-2.3c1.4 0 2.6 1 2.6 2.3s-1.2 2.3-2.6 2.3z"></path>
<path fill="#dc052b" d="M4.2 12.7l11.1 11.1v17.9h-3.4v-16.5l-7.7-7.7z"></path>
<path fill="#dc052b" d="M27.2 7.6c0 3.424-2.91 6.2-6.5 6.2s-6.5-2.776-6.5-6.2c0-3.424 2.91-6.2 6.5-6.2s6.5 2.776 6.5 6.2z"></path>
<path fill="#dc052b" d="M36.6 12.7l-11.1 11.1v17.9h3.3v-16.5l7.8-7.7 7.7 7.7v16.5h3.4v-17.9z"></path>
<path fill="#dc052b" d="M68.9 12.7l-11.1 11.1v17.9h3.4v-16.5l7.7-7.7z"></path>
<path fill="#dc052b" d="M36.6 8.2l14.5 14.4v19.1h3.3v-19.1l14.5-14.4v-4.8l-16.2 16.2-16.1-16.2-16.2 16.2-16.2-16.2v4.8l14.5 14.4v19.1h3.4v-19.1z"></path>
<path fill="#dc052b" d="M59 7.6c0 3.424-2.91 6.2-6.5 6.2s-6.5-2.776-6.5-6.2c0-3.424 2.91-6.2 6.5-6.2s6.5 2.776 6.5 6.2z"></path>
<path fill="#dc052b" d="M72.2 47.3c0 0.6-0.5 1.1-1.1 1.1s-1.1-0.5-1.1-1.1c0-0.6 0.5-1 1.1-1s1.1 0.4 1.1 1zM70.3 47.3c0 0.5 0.4 0.8 0.8 0.8 0.5 0 0.8-0.4 0.8-0.8 0-0.5-0.3-0.8-0.8-0.8-0.4 0-0.8 0.4-0.8 0.8z"></path>
<path fill="#dc052b" d="M70.8 46.8h0.3c0.2 0 0.4 0.1 0.4 0.3 0 0.1-0.1 0.2-0.2 0.3l0.3 0.5h-0.2l-0.2-0.4h-0.2v0.4h-0.2v-1.1zM71.1 47.3c0.1 0 0.1 0 0.1-0.1s-0.1-0.1-0.2-0.1v0 0.3h0.1z"></path>
</svg>
